<?xml version="1.0" standalone="no"?>
<!DOCTYPE svg PUBLIC "-//W3C//DTD SVG 20010904//EN"
 "http://www.w3.org/TR/2001/REC-SVG-20010904/DTD/svg10.dtd">
<svg version="1.0" xmlns="http://www.w3.org/2000/svg"
 width="1024.000000pt" height="1024.000000pt" viewBox="0 0 1024.000000 1024.000000"
 preserveAspectRatio="xMidYMid meet">
<metadata>
Created by potrace 1.14, written by Peter Selinger 2001-2017
</metadata>
<g transform="translate(0.000000,1024.000000) scale(0.100000,-0.100000)"
fill="#000000" stroke="none">
<path d="M1405 10225 c-657 -121 -1183 -610 -1350 -1255 -52 -200 -49 55 -52
-3760 -3 -2439 -1 -3569 7 -3645 21 -226 73 -405 175 -610 267 -536 787 -885
1392 -935 160 -13 6926 -13 7086 0 605 50 1125 399 1392 935 99 199 152 380
175 597 14 134 14 7037 -1 7166 -82 750 -625 1350 -1354 1497 l-123 25 -3638
-1 c-2927 -1 -3653 -4 -3709 -14z m3950 -3260 c133 -28 232 -65 402 -150 l163
-82 52 89 52 88 102 0 101 0 7 -362 c3 -200 9 -477 12 -615 l7 -253 -105 0
-105 0 -33 113 c-132 456 -274 695 -501 847 -104 69 -205 105 -342 121 -226
26 -408 -32 -553 -176 -110 -109 -154 -218 -154 -380 0 -223 81 -394 249 -528
81 -64 281 -167 461 -236 563 -216 744 -305 918 -450 144 -120 255 -303 293
-481 27 -130 28 -358 0 -486 -52 -247 -196 -465 -416 -632 -91 -68 -286 -164
-400 -197 -200 -57 -483 -69 -695 -31 -177 32 -406 110 -559 192 -46 24 -86
42 -89 39 -3 -3 -29 -45 -57 -93 l-51 -87 -101 -3 -101 -3 -6 83 c-3 46 -10
270 -16 498 -5 228 -13 475 -16 548 l-6 132 105 0 105 0 36 -114 c113 -357
270 -614 480 -782 91 -73 219 -142 317 -172 152 -47 378 -52 535 -12 229 59
377 206 430 426 22 92 23 277 1 366 -48 195 -177 369 -348 471 -35 20 -140 67
-234 104 -518 202 -609 239 -705 286 -390 193 -584 458 -608 831 -14 211 13
366 90 522 154 310 466 523 853 584 87 13 336 5 430 -15z"/>
</g>
</svg>
